<?xml version="1.0" encoding="UTF-8"?>
<svg id="Layer_1" data-name="Layer 1" xmlns="http://www.w3.org/2000/svg" viewBox="0 0 2034.48 585.19">
  <defs>
    <style>
      .cls-1 {
        fill: #fff;
      }
    </style>
  </defs>
  <g>
    <path class="cls-1" d="M447.63,410.49c-8.5,44.99-44.06,70.98-93.19,64.69-73.84-9.45-139.32-38.41-191.72-92.37-52.34-53.88-74.03-118.24-60.73-193.18.25-1.43.28-2.91.42-4.36,3.47-10.55,6.8-21.14,10.42-31.64,19.4-56.25,58.86-87.86,117.67-95.63,6.98.03,13.97.05,20.95.08,41.73,4.34,75,23.54,100.13,57.02.69,1.04,1.39,2.09,2.08,3.13,0,0,.15.29.15.29.51.62.77,1.6,2.01,1.6,0,0-.59.18-.59.18,1.84,3.55,3.08,6.04,5.29,8.9,0,0-.06-.12-.06-.11,0,1.52.37,2.85,1.86,3.59,0,0-.07-.04-.07-.04,0,2.01,0,4.02,0,6.27-25.48-26.94-56.35-40.49-93.03-35.26-88.78,12.67-124.14,117.14-86.39,185.59,0,0,0-.02,0-.02,0,1.48.46,2.73,1.77,3.56,0,0-.02-.04-.02-.04.6,1.17,1.2,2.34,1.79,3.51,0,0,0,.02,0,.02.61,1.1,1.21,2.21,1.82,3.31,0,0,.09.19.09.19.55,2.12,1.56,3.96,3.35,5.3,0,0,0-.01,0-.01.63,1.05,1.27,2.09,1.9,3.13,0,0,.2.38.2.38.47.62.94,1.24,1.41,1.85,19.22,28.81,45.7,49.31,76.51,63.86,53.56,25.29,110.15,36.54,169.46,33.12,2.72-.16,6.13-1.72,6.49,3.09Z"/>
    <path class="cls-1" d="M232.97,44.08c.87-4.38,4.93-3.73,7.7-4.38,37.32-8.79,73.83-5.86,109.33,8.53,15.95,6.46,30.04,16.15,43.57,26.66,0,0,.23.25.23.25,1.22.98,2.44,1.95,3.66,2.93.63.58,1.27,1.16,1.91,1.73,0,0,0,0,0,0,.58.57,1.17,1.14,1.75,1.72,0,0,.05.05.05.05.57.55,1.14,1.11,1.71,1.67,0,0,.1.09.1.09.55.54,1.11,1.09,1.66,1.64,0,0,.12.12.12.12.54.55,1.09,1.11,1.63,1.66,0,0,.1.11.1.11.55.57,1.11,1.15,1.66,1.72,0,0,.03.04.03.04.58.59,1.15,1.19,1.73,1.79,0,0-.03-.03-.03-.03.6.63,1.19,1.26,1.79,1.88,0,0-.12-.12-.12-.12.61.67,1.23,1.34,1.84,2.01,0,0-.23-.07-.23-.07,1.3,1.61,2.6,3.21,3.9,4.82,0,0,.15.22.15.22.5.6,1,1.21,1.5,1.81,0,0,0,0,0,0,.57.67,1.14,1.34,1.71,2.01,0,0-.23-.07-.23-.07,1.24,1.72,2.49,3.45,3.73,5.17,0,0-.02-.01-.02-.01.6,2.15,1.73,3.94,3.53,5.29,0,0-.01,0-.01,0,1.17,3.29,2.87,6.25,5.29,8.79,0,0,0,.02,0,.02.66,1.61,1.21,3.28,2,4.82,21.91,42.66,25.83,87.12,11.66,132.7-16.49,53.06-52.1,91.29-97.26,121.73-3.9,2.63-7.14,1.44-10.73.38-24.45-7.24-48.06-16.63-71.07-27.6-3.81-5.8,2.53-4.8,4.36-5.67,24.73-11.76,47.72-26.12,68.04-44.57,49.42-44.87,65.11-112.1,36.97-174.08-1.53-3.38-2.48-7.23-5.83-9.55-.8-1.91-.54-4.39-2.94-5.43,0,0-.05.09-.04.09.12-1.53-.51-2.66-1.81-3.43,0,0-.09-.15-.09-.15-1.08-2.8-2.41-5.42-5.09-7.06,0,0,0-.09,0-.09-24.78-35.3-59.57-53.59-101.51-59.73h0c-1.54-.11-3.09-.22-4.63-.32-.65-.1-1.29-.21-1.94-.31-6.62-.89-13.23-1.13-19.81.26Z"/>
    <path class="cls-1" d="M207.67,234.34c-4.12-25.03,1.82-46.69,20.32-64.87,23.45-23.04,63.07-21.05,84.91-3.81,8.67,6.84,15.46,15.03,20.28,24.92,10.63,25.44,8.34,49.59-9.36,70.87-16.97,20.4-39.46,27.39-65.49,22.31-14.52-2.83-26.11-10.99-36.52-21.08,0,0-.03-.08-.03-.08-1.09-2.83-2.84-5.16-5.27-6.97,0,0-.01.07-.01.07.1-1.52-.58-2.62-1.82-3.44,0,0-.07-.13-.07-.13-.57-1.1-1.15-2.19-1.72-3.29,0,0-.11-.24-.11-.24-.54-1.14-1.09-2.27-1.63-3.41,0,0-.03-.08-.03-.08-1.15-3.59-2.31-7.19-3.46-10.78Z"/>
    <path class="cls-1" d="M219.33,445.69c-9.6,6.06-18.49,11.64-26.18,18.81-15.79,14.74-26.69,31.6-24.57,54.53.47,5.12,1.44,10.12,4.15,14.08,3.63,5.28,1.19,7.7-2.73,10.55-11.35,8.24-26.91,9.25-38.84,1.57-21.08-13.57-29.31-33.86-25-61.53,3.38-21.69,14.73-39.75,29.27-55.54,7-7.61,13.65-15.86,22.74-21.52,3.2-1.99,4.75-1.76,7.42.47,8.31,6.94,16.64,13.9,25.43,20.2,8.78,6.3,18.12,11.81,28.31,18.38Z"/>
  </g>
  <g>
    <path class="cls-1" d="M673.86,409.76c-60.72,0-110.12-49.4-110.12-110.12s49.4-110.57,110.12-110.57,110.57,49.6,110.57,110.57v90.47c0,10.33-8.2,18.73-18.29,18.73s-18.28-8.23-18.28-18.73v-14c-21.24,21.74-47.31,33.64-74.01,33.64ZM673.86,227.91c-39.3,0-71.28,32.18-71.28,71.74s31.98,71.28,71.28,71.28,71.73-31.98,71.73-71.28-32.18-71.74-71.73-71.74Z"/>
    <path class="cls-1" d="M782.06,301.46v88.65c0,9.09-7.27,16.37-15.92,16.37-9.09,0-15.91-7.27-15.91-16.37v-20c-19.09,21.37-45.46,37.28-76.38,37.28-59.55,0-107.75-48.19-107.75-107.75s48.2-108.2,107.75-108.2,108.2,48.65,108.2,108.2v1.82ZM747.96,299.64c0-40.92-33.18-74.1-74.1-74.1s-73.65,33.19-73.65,74.1,33.18,73.65,73.65,73.65,74.1-33.19,74.1-73.65Z"/>
    <path class="cls-1" d="M1008.9,499.77c-10.42,0-18.27-8.25-18.27-19.19v-99.96c-20.01,18-46.67,28.23-74.01,28.23-29.46,0-57.12-11.47-77.89-32.29-20.79-20.84-32.23-48.64-32.23-78.28,0-60.72,49.4-110.12,110.12-110.12s110.56,49.4,110.56,110.12v182.31c0,10.58-8.2,19.19-18.28,19.19ZM916.61,227c-39.31,0-71.29,31.98-71.29,71.28s31.98,71.74,71.29,71.74,71.73-32.18,71.73-71.74-32.18-71.28-71.73-71.28Z"/>
    <path class="cls-1" d="M1024.81,300.55v180.03c0,9.55-7.27,16.82-15.91,16.82-9.09,0-15.91-7.27-15.91-16.82v-105.47c-19.55,19.55-46.83,31.37-76.38,31.37-59.56,0-107.75-48.19-107.75-108.2s48.19-107.75,107.75-107.75,108.19,48.65,108.19,107.75v2.27ZM990.71,298.28c0-40.46-33.19-73.65-74.1-73.65s-73.66,33.19-73.66,73.65,33.19,74.1,73.66,74.1,74.1-33.19,74.1-74.1Z"/>
    <path class="cls-1" d="M1163.44,408.39c-52.1,0-104.66-34.47-104.66-111.48V105.06c0-10.83,8.81-19.64,19.64-19.64s19.64,8.81,19.64,19.64v84.47h60.82c9.91,0,18.29,8.37,18.29,18.28s-8.2,18.74-18.29,18.74h-60.82v70.37c0,43.85,25.66,72.19,65.38,72.19h6.81c10.83,0,19.64,8.81,19.64,19.64s-8.81,19.64-19.64,19.64h-6.81Z"/>
    <path class="cls-1" d="M1187.53,388.75c0,9.55-7.72,17.28-17.28,17.28h-6.81c-48.2,0-102.3-30.91-102.3-109.11V105.06c0-9.55,7.73-17.28,17.28-17.28s17.28,7.73,17.28,17.28v86.83h63.19c8.64,0,15.92,7.27,15.92,15.91,0,9.09-7.27,16.37-15.92,16.37h-63.19v72.74c0,47.74,28.64,74.56,67.74,74.56h6.81c9.55,0,17.28,7.73,17.28,17.28Z"/>
    <path class="cls-1" d="M1232.98,408.39c-10.76,0-19.18-8.63-19.18-19.64v-180.49c0-11.02,8.43-19.64,19.18-19.64s20.1,9,20.1,19.64v180.49c0,10.65-9.21,19.64-20.1,19.64ZM1233.43,165.17c-13.34,0-24.19-11.26-24.19-25.1s10.4-23.74,24.19-23.74,24.19,10.2,24.19,23.74-10.85,25.1-24.19,25.1Z"/>
    <path class="cls-1" d="M1211.6,140.07c0-12.27,9.55-21.37,21.82-21.37s21.82,9.09,21.82,21.37-9.54,22.73-21.82,22.73-21.82-10.46-21.82-22.73ZM1216.16,388.75v-180.49c0-9.55,7.27-17.28,16.82-17.28s17.74,7.73,17.74,17.28v180.49c0,9.55-8.19,17.28-17.74,17.28s-16.82-7.73-16.82-17.28Z"/>
    <path class="cls-1" d="M1377.99,408.39c-7.89,0-14.99-4.67-18.08-11.89l-75.48-180.96c-4.16-9.88.56-21.22,10.76-25.8l.15-.06c2.2-.81,4.51-1.22,6.87-1.22,7.99,0,15.38,4.7,18.83,11.98l57.45,137.72,59.62-137.64c2.93-7.33,9.95-12.11,17.85-12.11,2.81,0,5.52.61,8.06,1.82,4.81,2.02,8.74,6.12,10.68,11.19,1.87,4.9,1.71,10.12-.46,14.7l-78.16,180.42c-3.14,7.33-10.07,11.88-18.09,11.88Z"/>
    <path class="cls-1" d="M1362.08,395.57l-75.47-180.94c-3.64-8.64.45-18.64,9.54-22.73,8.64-3.18,18.64.91,22.74,9.55l59.55,142.75,61.83-142.75c3.64-9.09,14.09-13.18,22.73-9.09,8.64,3.64,13.18,14.09,9.09,22.73l-78.2,180.49c-2.73,6.36-8.64,10.46-15.92,10.46-6.81,0-13.18-4.09-15.91-10.46Z"/>
    <path class="cls-1" d="M1524.81,408.39c-10.76,0-19.19-8.63-19.19-19.64v-180.49c0-11.02,8.43-19.64,19.19-19.64s20.09,9,20.09,19.64v180.49c0,10.65-9.2,19.64-20.09,19.64ZM1525.27,165.17c-13.34,0-24.19-11.26-24.19-25.1s10.4-23.74,24.19-23.74,24.19,10.2,24.19,23.74-10.85,25.1-24.19,25.1Z"/>
    <path class="cls-1" d="M1503.45,140.07c0-12.27,9.54-21.37,21.82-21.37s21.82,9.09,21.82,21.37-9.55,22.73-21.82,22.73-21.82-10.46-21.82-22.73ZM1507.98,388.75v-180.49c0-9.55,7.27-17.28,16.83-17.28s17.73,7.73,17.73,17.28v180.49c0,9.55-8.17,17.28-17.73,17.28s-16.83-7.73-16.83-17.28Z"/>
    <path class="cls-1" d="M1689.82,408.39c-52.09,0-104.66-34.47-104.66-111.48V105.06c0-10.83,8.81-19.64,19.64-19.64s19.65,8.81,19.65,19.64v84.47h60.83c9.91,0,18.28,8.37,18.28,18.28s-8.2,18.74-18.28,18.74h-60.83v70.37c0,43.85,25.66,72.19,65.37,72.19h6.82c10.83,0,19.64,8.81,19.64,19.64s-8.81,19.64-19.64,19.64h-6.82Z"/>
    <path class="cls-1" d="M1713.92,388.75c0,9.55-7.73,17.28-17.28,17.28h-6.82c-48.18,0-102.29-30.91-102.29-109.11V105.06c0-9.55,7.72-17.28,17.28-17.28s17.28,7.73,17.28,17.28v86.83h63.2c8.63,0,15.91,7.27,15.91,15.91,0,9.09-7.27,16.37-15.91,16.37h-63.2v72.74c0,47.74,28.65,74.56,67.73,74.56h6.82c9.54,0,17.28,7.73,17.28,17.28Z"/>
    <path class="cls-1" d="M1838,408.39c-5.52,0-11.25-.31-17.04-.91-58.65-5.46-101.24-51.57-101.24-109.65,0-29.24,11.37-56.68,32.01-77.26,20.66-20.6,48.24-31.95,77.65-31.95s55.69,10.86,75.77,30.57c20.1,19.74,31.17,46.21,31.17,74.54,0,8.94-6.75,16.9-15.75,18.64-1.28.55-2.47.55-3.45.55l-157.2.45c6.21,31.47,31.29,53.25,66.08,57.12,4.78.52,9.19.77,13.47.77,22.38,0,41.47-7.2,58.37-22.02l.31-.28.39-.15c3.13-1.22,6.4-1.86,9.47-1.86,6.9,0,12.33,3.26,14.89,8.94,4.44,8.48.64,18.86-8.87,24.31-18.58,18.44-44.86,28.19-76.02,28.19ZM1896.73,283.18c-4.68-34.03-32.61-58.46-67.36-58.46s-63.27,23.9-69.5,58.46h136.85Z"/>
    <path class="cls-1" d="M1917.12,310.55l-160.03.45c5.46,34.1,31.82,57.74,68.64,61.83,20.92,2.27,47.74.91,73.66-21.82,8.17-3.18,17.73-2.27,21.36,5.91,4.1,7.73,0,16.82-8.18,21.37-20.91,20.91-52.29,30.91-91.38,26.82-58.65-5.46-99.12-51.37-99.12-107.29,0-59.1,47.74-106.84,107.29-106.84s104.57,45.46,104.57,102.75c0,8.18-6.37,15-14.1,16.37-.91.45-1.82.45-2.73.45ZM1757.09,285.55h142.3c-3.64-35.92-32.73-63.19-70.02-63.19s-66.83,25.46-72.28,63.19Z"/>
  </g>
</svg>